<svg data-v-423bf9ae="" xmlns="http://www.w3.org/2000/svg" viewBox="0 0 535 90" class="iconLeft"><!----><!----><!----><g data-v-423bf9ae="" id="f03ca744-58d6-4a42-ab46-264a8c424dce" fill="black" transform="matrix(5.830903811703725,0,0,5.830903811703725,92.71840967652253,12.551021672677557)"><path d="M2.72 10.50L2.72 6.73L4.80 6.73C7.31 6.73 8.62 5.56 8.62 3.53C8.62 1.16 6.72 0.42 4.69 0.42L1.06 0.42L1.06 10.50ZM2.72 1.88L4.73 1.88C6.06 1.88 6.93 2.30 6.93 3.57C6.93 4.59 6.29 5.28 4.76 5.28L2.72 5.28ZM9.14 6.86C9.14 9.37 10.63 10.71 12.63 10.71C14.62 10.71 16.10 9.37 16.10 6.86C16.10 4.35 14.62 3.01 12.63 3.01C10.63 3.01 9.14 4.35 9.14 6.86ZM10.70 6.86C10.70 5.10 11.56 4.31 12.63 4.31C13.68 4.31 14.55 5.10 14.55 6.86C14.55 8.62 13.68 9.42 12.63 9.42C11.56 9.42 10.70 8.62 10.70 6.86ZM16.97 8.40C17.09 9.83 18.20 10.71 19.98 10.71C21.53 10.71 22.95 10.04 22.95 8.43C22.95 7.03 21.98 6.52 21.11 6.30L19.25 5.84C18.84 5.74 18.48 5.52 18.48 5.11C18.48 4.56 19.00 4.26 19.88 4.26C20.66 4.26 21.20 4.59 21.31 5.33L22.71 5.11C22.62 3.92 21.66 3.01 19.92 3.01C18.42 3.01 17.08 3.65 17.08 5.22C17.08 6.43 17.93 6.96 18.89 7.20L20.65 7.64C21.24 7.80 21.49 8.05 21.49 8.53C21.49 9.25 20.68 9.46 20.02 9.46C18.96 9.46 18.48 8.90 18.38 8.18L16.97 8.40ZM25.79 10.50L25.79 6.54C25.79 5.10 26.52 4.33 27.51 4.33C28.50 4.33 28.88 4.98 28.88 6.09L28.88 10.50L30.44 10.50L30.44 6.03C30.44 4.30 29.89 3.01 27.87 3.01C26.92 3.01 26.24 3.39 25.79 4.19L25.79 0.42L24.23 0.42L24.23 10.50ZM34.01 10.50L34.01 6.73L36.09 6.73C38.60 6.73 39.91 5.56 39.91 3.53C39.91 1.16 38.01 0.42 35.98 0.42L32.35 0.42L32.35 10.50ZM34.01 1.88L36.02 1.88C37.35 1.88 38.22 2.30 38.22 3.57C38.22 4.59 37.58 5.28 36.05 5.28L34.01 5.28ZM45.11 9.66C45.14 9.97 45.19 10.30 45.40 10.50L46.97 10.50C46.72 10.23 46.58 9.76 46.58 9.02L46.58 5.92C46.58 3.95 45.56 3.01 43.64 3.01C42.25 3.01 40.91 3.53 40.54 5.21L41.94 5.59C42.15 4.79 42.64 4.27 43.53 4.27C44.46 4.27 45.02 4.75 45.02 5.64L45.02 5.88C44.66 6.05 43.95 6.17 43.18 6.24C41.51 6.43 40.32 7.04 40.32 8.61C40.32 10.04 41.45 10.71 42.78 10.71C43.65 10.71 44.42 10.43 45.11 9.66ZM45.02 8.41C44.69 8.90 43.92 9.51 43.08 9.51C42.43 9.51 41.92 9.24 41.92 8.53C41.90 7.67 42.64 7.48 43.37 7.35C44.07 7.24 44.72 7.08 45.02 6.96ZM49.94 10.50L49.94 6.82C49.94 5.40 50.54 4.47 51.74 4.47C52.18 4.47 52.46 4.59 52.74 4.77L53.09 3.39C52.75 3.12 52.36 3.01 51.80 3.01C50.85 3.01 50.27 3.50 49.81 4.48L49.81 3.22L48.38 3.22L48.38 10.50ZM58.30 9.66C58.32 9.97 58.38 10.30 58.59 10.50L60.16 10.50C59.91 10.23 59.77 9.76 59.77 9.02L59.77 5.92C59.77 3.95 58.74 3.01 56.83 3.01C55.44 3.01 54.10 3.53 53.73 5.21L55.13 5.59C55.34 4.79 55.83 4.27 56.71 4.27C57.65 4.27 58.21 4.75 58.21 5.64L58.21 5.88C57.85 6.05 57.13 6.17 56.36 6.24C54.70 6.43 53.51 7.04 53.51 8.61C53.51 10.04 54.64 10.71 55.97 10.71C56.84 10.71 57.61 10.43 58.30 9.66ZM58.21 8.41C57.88 8.90 57.11 9.51 56.27 9.51C55.62 9.51 55.10 9.24 55.10 8.53C55.09 7.67 55.83 7.48 56.56 7.35C57.26 7.24 57.90 7.08 58.21 6.96ZM66.15 0.42L66.15 3.95C65.73 3.33 65.09 3.01 64.32 3.01C62.40 3.01 61.15 4.49 61.15 6.86C61.15 9.23 62.37 10.71 64.29 10.71C65.20 10.71 65.87 10.26 66.29 9.56L66.29 10.50L67.70 10.50L67.70 0.42ZM66.30 6.86C66.30 8.57 65.39 9.42 64.48 9.42C63.48 9.42 62.71 8.57 62.71 6.86C62.71 5.17 63.46 4.31 64.48 4.31C65.52 4.31 66.30 5.17 66.30 6.86ZM75.78 7.28C75.80 7.21 75.80 6.85 75.80 6.66C75.80 4.44 74.49 3.01 72.42 3.01C70.46 3.01 68.99 4.35 68.99 6.86C68.99 9.37 70.46 10.71 72.42 10.71C74.07 10.71 75.24 9.93 75.70 8.37L74.23 8.06C74.02 8.93 73.32 9.42 72.52 9.42C71.51 9.42 70.64 8.76 70.55 7.28ZM72.41 4.31C73.46 4.31 74.13 5.05 74.19 6.13L70.59 6.13C70.77 4.89 71.60 4.31 72.41 4.31Z"></path></g><!----><g data-v-423bf9ae="" id="b0c24cbb-533e-4e7d-9ee3-7dc380bb5624" transform="matrix(1.8750001490116237,0,0,1.8750001490116237,-8.76897215488848,-3.750000298023245)" stroke="none" fill="black"><path d="M16.3 25.8C12.5 29 6.2 35.2 5 40.8c-.3 1.2.5 2.3 1.6 2.6l4.3 1.1c.5-3 2.2-11.6 7.6-18-.8-.2-1.5-.5-2.2-.7zM12.9 45.1c-.2 1.2.6 2.2 1.7 2.5l10.2 2.3c.2 0 .3.1.5.1.5 0 1-.2 1.4-.5.5-.4.8-1.1.8-1.8 0-6.7 4.5-14 6.9-17.4-4.8-.8-9.9-2-13.7-3.1-5.6 6.2-7.3 15-7.8 17.9zM35.6 17.3l-2.7 2.2c3.7-.1 9.6-1.1 12.9-1.7.8-1.5 1.5-4 1.1-7.6C46.3 2.6 29.7 2 27.8 2h-.1c-1.5.1-14.3.8-18.3 7.4-3.1 5.2 1 10.6 5.5 13.7.2.1.3.2.5.3 1.7.6 16.6 5.5 26 5.5.5 0 1.1 0 1.6-.1.6 0 1.2-.3 1.5-.8.4-.5.6-1.1.5-1.7l-.5-6.3c-3.6.7-8.9 1.5-12.4 1.5-3.8 0-7.8-.5-10.4-2.3-3.8-2.6-5.7-5.5-5.1-7.9.3-1.1 1.3-3.1 5.5-3.7 4-.5 8.1-.1 10.8.4 2 .3 3.6 1.8 4.3 3.7.6 1.8.2 3.7-1 5.1-.2.2-.4.4-.6.5z"></path></g><!----></svg>